<svg xmlns="http://www.w3.org/2000/svg" width="260" height="35" fill="none">
	<path fill="#00AFD8" fill-rule="evenodd" d="M18.078 21.062c-2.496-.626-4.13.196-6.115.417l-.25.38A27.438 27.438 0 008.07 33.449a.35.35 0 00.246.368c.05.013.103.013.153 0a25.54 25.54 0 0010.21-4.407.395.395 0 00.162-.294.327.327 0 00-.1-.283 11.976 11.976 0 01-2.222-2.529c8.837-2.553 9.361-6.346 9.985-11.194.375-2.983 1.248-5.144 2.496-5.892.924-.516 4.843-1.302 5.804-1.633.175-.061-.387-.196-.724-.16-2.271.221-5.404.725-5.84.418a6.446 6.446 0 00-4.057-1.387c-4.63.736-3.133 4.333-3.92 6.53a7.093 7.093 0 01-.698.638A40.438 40.438 0 00.255 10.162a.29.29 0 00-.226.157.278.278 0 00.014.272c10.884 14.473 12.481 7.93 18.098 10.336a.061.061 0 010 .086.088.088 0 01-.1 0l.037.049zm54.069 6.8a8.642 8.642 0 01-4.082-.92 6.392 6.392 0 01-2.708-2.602 7.824 7.824 0 01-.961-3.965 7.897 7.897 0 01.96-4.002 6.452 6.452 0 012.71-2.627 8.502 8.502 0 014.08-.933 8.858 8.858 0 014.094.909 6.489 6.489 0 012.709 2.65 8.671 8.671 0 01.96 3.966c0 1.377-.328 2.735-.96 3.965a6.476 6.476 0 01-2.709 2.639 8.553 8.553 0 01-4.093.933v-.013zm123.475-11.76a2.8 2.8 0 011.96.713c.569.582.94 1.324 1.061 2.123h-6.241a3.164 3.164 0 011.048-2.016 3.266 3.266 0 012.147-.82h.025zm.088-3.264a7.726 7.726 0 00-3.894.933 6.182 6.182 0 00-2.509 2.602 8.577 8.577 0 00-.886 3.977 7.101 7.101 0 00.466 2.987 7.205 7.205 0 001.668 2.537 8.91 8.91 0 006.241 1.988 9.46 9.46 0 003.057-.454 9.136 9.136 0 002.397-1.313l-1.148-2.774c-.653.381-1.343.698-2.06.945a6.587 6.587 0 01-2.159.319c-2.234 0-4.056-.773-4.518-3.081h9.985v-1.228a9.689 9.689 0 00-.712-3.78 5.99 5.99 0 00-2.221-2.689 6.409 6.409 0 00-3.745-1.006l.038.037zm-68.422-7.365a18.867 18.867 0 01-2.409 1.448c-2.433.614-5.154.565-7.214 1.166a4.847 4.847 0 00-2.139 1.223 4.737 4.737 0 00-1.243 2.104 16.655 16.655 0 00-.761 5.487c0 2.025.087 3.265.137 3.977a7.528 7.528 0 001.071 3.458 7.678 7.678 0 002.573 2.581 8.023 8.023 0 004.032.97c7.576 0 9.111-7.255 6.789-11.256-2.046-3.536-7.9-3.744-10.596-1.707a9.47 9.47 0 00-2.496 2.922v-.614a11.303 11.303 0 012.496-3.314c.036-.637.18-1.263.424-1.854.637-1.129 2.684-1.043 3.982-1.141A16.595 16.595 0 00128 9.51a22.23 22.23 0 00-.787-4.038h.075zm-25.499 7.745v9.194l5.991-9.194h3.894v14.288h-3.894v-9.194l-5.991 9.194h-3.894V13.218h3.894zm48.839 0v9.194l5.991-9.194h3.894v14.288h-3.894v-9.194l-6.004 9.194h-3.894V13.218h3.907zm99.487 0v9.194l5.991-9.194H260v14.288h-3.894v-9.194l-5.991 9.194h-3.894V13.218h3.894zm-130.503-1.08a.483.483 0 01.344.132.471.471 0 01.143.334.474.474 0 01-.276.512.494.494 0 01-.575-.125.472.472 0 01-.11-.386c0-.124.05-.243.139-.33a.48.48 0 01.335-.137zM91.38 27.506V16.164h-3.357a21.987 21.987 0 01-1.448 7.98 5.907 5.907 0 01-1.739 2.404 6.045 6.045 0 01-2.704 1.278l-1.249-3.02a4.511 4.511 0 002.497-2.345c.624-1.644 1.098-3.977 1.098-9.292h10.746v14.337H91.38zm49.475-7.193a4.855 4.855 0 01-.923 3.081 3 3 0 01-1.095.916c-.435.214-.916.32-1.402.312a4.495 4.495 0 01-2.571-.823v-6.837a4.759 4.759 0 012.571-.86c.481-.014.958.084 1.392.287.434.203.813.504 1.105.88.644.885.965 1.958.911 3.044h.012zm4.019 0a7.549 7.549 0 00-1.959-5.462 7.104 7.104 0 00-2.461-1.563 7.2 7.2 0 00-2.894-.45 6.203 6.203 0 00-3.831 1.35l-.425-.97h-2.334v21.064h3.869v-7.095c.8.423 1.689.654 2.596.675a8.057 8.057 0 003.994-.945 6.292 6.292 0 002.497-2.651 8.474 8.474 0 00.886-3.953h.062zm93.384-4.149h6.652l-.586-2.946h-9.985v14.288h3.894V16.164h.025zm-63.18-2.946a44.468 44.468 0 01-1.522 8.593 7.948 7.948 0 01-1.461 2.81h-1.684v6.482l3.27-.147v-3.45h10.721v3.487l3.257.122V24.56h-1.847V13.218h-10.734zm6.853 11.342h-5.592c.261-.558.486-1.132.674-1.718a36.87 36.87 0 001.373-6.678h3.545v8.396zm42.198-3.277h2.322c1.335 0 2.209.749 2.209 1.792 0 1.044-.861 1.756-2.496 1.756-.677 0-1.352-.046-2.022-.136v-3.412h-.013zm0-8.003h-3.894v14.14c1.886.262 3.787.393 5.692.393 3.307 0 6.59-.76 6.59-4.59a4.566 4.566 0 00-.328-2.008 4.632 4.632 0 00-1.17-1.675A5.893 5.893 0 00227 18.239h-2.871v-5.02.06zm-16.05 0h-3.895v14.226h3.845v-5.855h5.641v5.855h3.894V13.218h-3.894v5.487h-5.641v-5.487l.05.062zm-86.744 3.62a3.794 3.794 0 012.696.983c.342.313.614.694.799 1.116.185.423.278.879.274 1.339 0 2.185-1.248 4.063-3.37 4.26a3.485 3.485 0 01-2.496-.7 3.93 3.93 0 01-1.41-2.185 9.04 9.04 0 01-.225-3.462 5.672 5.672 0 013.744-1.387l-.012.037zM51.328 27.508h-4.031V7.473h4.031v8.495l1.348-.405 7.352-8.593 2.995 2.271-6.977 8.175 8.262 10.115h-4.992l-6.765-8.384-1.248.356v8.028l.025-.024zm24.563-7.194a4.41 4.41 0 00-1.048-3.032 3.413 3.413 0 00-1.206-.916 3.468 3.468 0 00-1.49-.311 3.404 3.404 0 00-1.48.31 3.35 3.35 0 00-1.191.917 4.447 4.447 0 00-1.074 3.057 4.362 4.362 0 001.086 3.069c.327.39.739.704 1.206.916a3.47 3.47 0 001.49.311 3.419 3.419 0 001.486-.308 3.364 3.364 0 001.198-.92 4.446 4.446 0 001.06-3.068l-.037-.025zM18.203 2.011a15.93 15.93 0 00-6.02 1.18 15.72 15.72 0 00-5.1 3.362A14.723 14.723 0 005.46 8.43c-.811 0-1.622-.074-2.421-.074A17.135 17.135 0 015.635 5.13a17.82 17.82 0 015.775-3.796 18.058 18.058 0 0113.624 0c2.16.88 4.122 2.17 5.775 3.796.275.27.55.565.811.86-.859.135-1.726.222-2.596.257a15.857 15.857 0 00-10.808-4.223l-.013-.012zM2.502 16.373v1.13a15.22 15.22 0 001.183 5.916 15.427 15.427 0 003.398 5.02l.062.062a34.715 34.715 0 00-.474 2.32 19.145 19.145 0 01-1.036-.945 17.526 17.526 0 01-4.417-7.211 17.3 17.3 0 01-.5-8.403c.573.7 1.172 1.411 1.797 2.099l-.013.012zM16.406 32.87c.596.07 1.197.103 1.797.098 2.733.002 5.42-.696 7.796-2.024a15.632 15.632 0 005.756-5.553 15.302 15.302 0 002.208-7.626c.051-2.688-.61-5.342-1.918-7.702l.287-.062c.562-.147 1.173-.27 1.785-.43a17.29 17.29 0 011.787 9.895 17.396 17.396 0 01-4.029 9.235 17.86 17.86 0 01-8.521 5.545 18.123 18.123 0 01-10.218.035 28.441 28.441 0 003.27-1.411zm8.587-24.919a.883.883 0 01.478.166.847.847 0 01.074 1.326.88.88 0 01-.958.146.87.87 0 01-.378-.332.848.848 0 01-.127-.483.866.866 0 01.285-.594.895.895 0 01.626-.229z' clip-rule='evenodd'/%3E%3C/svg%3E"/>
</svg>

